<svg width="24" height="24" viewBox="0 0 24 24" fill="none" xmlns="http://www.w3.org/2000/svg">
<path d="M18.6534 5.99366C17.4294 5.44167 16.1174 5.03367 14.7454 4.80168C14.7332 4.79933 14.7206 4.80084 14.7092 4.806C14.6979 4.81116 14.6885 4.81971 14.6822 4.83048C14.5142 5.12567 14.327 5.51046 14.1958 5.81446C12.7407 5.59705 11.2614 5.59705 9.80632 5.81446C9.66019 5.47755 9.4954 5.14905 9.31273 4.83048C9.30654 4.81958 9.29717 4.81084 9.28588 4.8054C9.27459 4.79997 9.26191 4.79811 9.24953 4.80008C7.87835 5.03207 6.56637 5.44007 5.34159 5.99286C5.33106 5.99728 5.32212 6.00481 5.31599 6.01446C2.82644 9.6744 2.14405 13.2439 2.47924 16.7687C2.48017 16.7773 2.48285 16.7857 2.48712 16.7932C2.49138 16.8008 2.49714 16.8074 2.50404 16.8127C3.95713 17.8706 5.57786 18.6765 7.29836 19.1966C7.31036 19.2003 7.32318 19.2003 7.33517 19.1966C7.34716 19.1929 7.35775 19.1857 7.36556 19.1758C7.73515 18.6798 8.06475 18.1559 8.34634 17.6055C8.36314 17.5735 8.34715 17.5351 8.31355 17.5223C7.79676 17.3277 7.29603 17.0928 6.81597 16.8199C6.80734 16.815 6.80008 16.808 6.79482 16.7995C6.78956 16.7911 6.78647 16.7815 6.78584 16.7716C6.7852 16.7617 6.78704 16.7518 6.79118 16.7427C6.79532 16.7337 6.80164 16.7259 6.80957 16.7199C6.91037 16.6455 7.01117 16.5679 7.10717 16.4903C7.11581 16.4833 7.12621 16.4789 7.13723 16.4774C7.14825 16.476 7.15944 16.4777 7.16956 16.4823C10.3111 17.8935 13.7135 17.8935 16.8182 16.4823C16.8284 16.4774 16.8397 16.4755 16.8508 16.4768C16.862 16.4781 16.8726 16.4825 16.8814 16.4895C16.9774 16.5679 17.0774 16.6455 17.179 16.7199C17.187 16.7257 17.1934 16.7335 17.1977 16.7424C17.202 16.7514 17.204 16.7613 17.2035 16.7712C17.203 16.7811 17.2001 16.7907 17.195 16.7992C17.1899 16.8077 17.1827 16.8148 17.1742 16.8199C16.6958 17.0951 16.1982 17.3279 15.6758 17.5215C15.6678 17.5244 15.6605 17.529 15.6544 17.5349C15.6483 17.5409 15.6435 17.5481 15.6404 17.556C15.6373 17.564 15.6359 17.5725 15.6364 17.581C15.6368 17.5896 15.6391 17.5979 15.643 17.6055C15.931 18.1551 16.2606 18.6782 16.623 19.175C16.6305 19.1852 16.641 19.1929 16.6531 19.1969C16.6651 19.2009 16.6781 19.2011 16.6902 19.1974C18.4137 18.6788 20.037 17.8725 21.4917 16.8127C21.4988 16.8077 21.5048 16.8013 21.5092 16.7938C21.5136 16.7864 21.5164 16.7781 21.5173 16.7695C21.9173 12.6943 20.8469 9.1536 18.6782 6.01606C18.6729 6.00586 18.6641 5.99791 18.6534 5.99366ZM8.81594 14.6223C7.87035 14.6223 7.09037 13.7671 7.09037 12.7183C7.09037 11.6688 7.85515 10.8144 8.81594 10.8144C9.78392 10.8144 10.5567 11.676 10.5415 12.7183C10.5415 13.7679 9.77672 14.6223 8.81594 14.6223ZM15.1958 14.6223C14.2494 14.6223 13.4703 13.7671 13.4703 12.7183C13.4703 11.6688 14.2342 10.8144 15.1958 10.8144C16.1638 10.8144 16.9366 11.676 16.9214 12.7183C16.9214 13.7679 16.1646 14.6223 15.1958 14.6223Z" fill="#7C8998"/>
</svg>
