<svg width="24" height="24" viewBox="0 0 24 24" fill="none" xmlns="http://www.w3.org/2000/svg">
<path d="M18.9 4.5H5.1C4.76812 4.5 4.5 4.76812 4.5 5.1V18.9C4.5 19.2319 4.76812 19.5 5.1 19.5H18.9C19.2319 19.5 19.5 19.2319 19.5 18.9V5.1C19.5 4.76812 19.2319 4.5 18.9 4.5ZM16.8 8.35688L16.035 9.09C15.9675 9.14062 15.9356 9.22313 15.9487 9.30375V14.6981C15.9356 14.7806 15.9675 14.8631 16.035 14.9119L16.785 15.645V15.8081H13.02V15.6525L13.7944 14.9006C13.8713 14.8238 13.8713 14.8013 13.8713 14.6869V10.3219L11.715 15.7894H11.4244L8.91563 10.3219V13.9875C8.89313 14.1413 8.9475 14.2969 9.05625 14.4075L10.065 15.6281V15.7913H7.2V15.6281L8.20875 14.4075C8.2619 14.3526 8.30145 14.286 8.32424 14.2131C8.34704 14.1402 8.35243 14.0629 8.34 13.9875V9.75C8.35312 9.63188 8.30813 9.5175 8.21812 9.43687L7.32188 8.35688V8.19375H10.1063L12.255 12.9094L14.1469 8.1975H16.8V8.35688Z" fill="#7C8998"/>
</svg>
