<svg width="24" height="24" viewBox="0 0 24 24" fill="none" xmlns="http://www.w3.org/2000/svg">
<path d="M9.32357 17.9996C14.7574 17.9996 17.7303 13.6122 17.7303 9.81429C17.7303 9.69092 17.7303 9.56755 17.7245 9.44418C18.3035 9.03573 18.803 8.53014 19.1998 7.95109C18.6596 8.18349 18.087 8.3368 17.5006 8.40603C18.1184 8.04593 18.581 7.47977 18.8024 6.81271C18.2217 7.1481 17.586 7.38356 16.9232 7.50878C16.6473 7.22178 16.3138 6.993 15.9433 6.83661C15.5729 6.68022 15.1734 6.59956 14.7696 6.59961C13.9858 6.60017 13.2341 6.90358 12.6798 7.44323C12.1255 7.98288 11.8139 8.71464 11.8133 9.47782C11.8133 9.70214 11.8421 9.92084 11.8882 10.1339C10.7131 10.0765 9.56352 9.77907 8.51413 9.26099C7.46474 8.74291 6.539 8.01576 5.797 7.12674C5.41993 7.76082 5.30482 8.51083 5.47505 9.22452C5.64527 9.93821 6.08808 10.5621 6.71356 10.9695C6.2449 10.9537 5.78663 10.8308 5.3758 10.6106V10.6499C5.37644 11.3139 5.61249 11.9574 6.04408 12.4716C6.47567 12.9857 7.07634 13.3391 7.74461 13.472C7.49135 13.54 7.22972 13.574 6.96701 13.5729C6.77621 13.5729 6.59188 13.5561 6.4126 13.5225C6.60098 14.0943 6.96846 14.5944 7.4635 14.9527C7.95855 15.311 8.55635 15.5094 9.17309 15.5203C8.1266 16.3212 6.83364 16.7557 5.50252 16.754C5.26636 16.754 5.0302 16.7428 4.7998 16.7147C6.15104 17.5542 7.72065 18 9.32357 17.9996Z" fill="#7C8998"/>
</svg>
